<svg width="187" height="273" viewBox="0 0 187 273" fill="none" xmlns="http://www.w3.org/2000/svg">
<rect width="187" height="273" fill="#CC00FF"/>
<path d="M57.2852 99V73.4062H66.25C69.3555 73.4062 71.7109 74.0039 73.3164 75.1992C74.9219 76.3828 75.7246 78.123 75.7246 80.4199C75.7246 81.6738 75.4023 82.7812 74.7578 83.7422C74.1133 84.6914 73.2168 85.3887 72.0684 85.834C73.3809 86.1621 74.4121 86.8242 75.1621 87.8203C75.9238 88.8164 76.3047 90.0352 76.3047 91.4766C76.3047 93.9375 75.5195 95.8008 73.9492 97.0664C72.3789 98.332 70.1406 98.9766 67.2344 99H57.2852ZM62.5586 87.8555V94.7637H67.0762C68.3184 94.7637 69.2852 94.4707 69.9766 93.8848C70.6797 93.2871 71.0312 92.4668 71.0312 91.4238C71.0312 89.0801 69.8184 87.8906 67.3926 87.8555H62.5586ZM62.5586 84.1289H66.4609C69.1211 84.082 70.4512 83.0215 70.4512 80.9473C70.4512 79.7871 70.1113 78.9551 69.4316 78.4512C68.7637 77.9355 67.7031 77.6777 66.25 77.6777H62.5586V84.1289ZM85.3047 99H80.207V72H85.3047V99ZM88.7148 89.3145C88.7148 87.4277 89.0781 85.7461 89.8047 84.2695C90.5312 82.793 91.5742 81.6504 92.9336 80.8418C94.3047 80.0332 95.8926 79.6289 97.6973 79.6289C100.264 79.6289 102.355 80.4141 103.973 81.9844C105.602 83.5547 106.51 85.6875 106.697 88.3828L106.732 89.6836C106.732 92.6016 105.918 94.9453 104.289 96.7148C102.66 98.4727 100.475 99.3516 97.7324 99.3516C94.9902 99.3516 92.7988 98.4727 91.1582 96.7148C89.5293 94.957 88.7148 92.5664 88.7148 89.543V89.3145ZM93.7949 89.6836C93.7949 91.4883 94.1348 92.8711 94.8145 93.832C95.4941 94.7812 96.4668 95.2559 97.7324 95.2559C98.9629 95.2559 99.9238 94.7871 100.615 93.8496C101.307 92.9004 101.652 91.3887 101.652 89.3145C101.652 87.5449 101.307 86.1738 100.615 85.2012C99.9238 84.2285 98.9512 83.7422 97.6973 83.7422C96.4551 83.7422 95.4941 84.2285 94.8145 85.2012C94.1348 86.1621 93.7949 87.6562 93.7949 89.6836ZM109.123 89.3496C109.123 86.4316 109.814 84.082 111.197 82.3008C112.592 80.5195 114.467 79.6289 116.822 79.6289C118.908 79.6289 120.531 80.3438 121.691 81.7734L121.902 79.9805H126.508V98.3672C126.508 100.031 126.127 101.479 125.365 102.709C124.615 103.939 123.555 104.877 122.184 105.521C120.812 106.166 119.207 106.488 117.367 106.488C115.973 106.488 114.613 106.207 113.289 105.645C111.965 105.094 110.963 104.379 110.283 103.5L112.533 100.406C113.799 101.824 115.334 102.533 117.139 102.533C118.486 102.533 119.535 102.17 120.285 101.443C121.035 100.729 121.41 99.709 121.41 98.3848V97.3652C120.238 98.6895 118.697 99.3516 116.787 99.3516C114.502 99.3516 112.65 98.4609 111.232 96.6797C109.826 94.8867 109.123 92.5137 109.123 89.5605V89.3496ZM114.203 89.7188C114.203 91.4414 114.549 92.7949 115.24 93.7793C115.932 94.752 116.881 95.2383 118.088 95.2383C119.635 95.2383 120.742 94.6582 121.41 93.498V85.5C120.73 84.3398 119.635 83.7598 118.123 83.7598C116.904 83.7598 115.943 84.2578 115.24 85.2539C114.549 86.25 114.203 87.7383 114.203 89.7188Z" fill="white"/>
<path d="M57.2852 99H56.2852V100H57.2852V99ZM57.2852 73.4062V72.4062H56.2852V73.4062H57.2852ZM73.3164 75.1992L72.7192 76.0013L72.723 76.0041L73.3164 75.1992ZM74.7578 83.7422L75.5851 84.3039L75.5883 84.2992L74.7578 83.7422ZM72.0684 85.834L71.7068 84.9016L68.7704 86.0403L71.8258 86.8041L72.0684 85.834ZM75.1621 87.8203L74.3632 88.4218L74.3678 88.4278L75.1621 87.8203ZM67.2344 99V100L67.2424 100L67.2344 99ZM62.5586 87.8555V86.8555H61.5586V87.8555H62.5586ZM62.5586 94.7637H61.5586V95.7637H62.5586V94.7637ZM69.9766 93.8848L70.6231 94.6477L70.6242 94.6467L69.9766 93.8848ZM67.3926 87.8555L67.4071 86.8556L67.3998 86.8555H67.3926V87.8555ZM62.5586 84.1289H61.5586V85.1289H62.5586V84.1289ZM66.4609 84.1289V85.1289H66.4697L66.4786 85.1288L66.4609 84.1289ZM69.4316 78.4512L68.8206 79.2428L68.8283 79.2487L68.8361 79.2545L69.4316 78.4512ZM62.5586 77.6777V76.6777H61.5586V77.6777H62.5586ZM58.2852 99V73.4062H56.2852V99H58.2852ZM57.2852 74.4062H66.25V72.4062H57.2852V74.4062ZM66.25 74.4062C69.2515 74.4062 71.3581 74.988 72.7192 76.0013L73.9136 74.3971C72.0637 73.0198 69.4594 72.4062 66.25 72.4062V74.4062ZM72.723 76.0041C74.0315 76.9688 74.7246 78.3857 74.7246 80.4199H76.7246C76.7246 77.8604 75.8122 75.7968 73.9098 74.3943L72.723 76.0041ZM74.7246 80.4199C74.7246 81.4928 74.4521 82.4028 73.9273 83.1852L75.5883 84.2992C76.3526 83.1597 76.7246 81.8548 76.7246 80.4199H74.7246ZM73.9305 83.1804C73.4085 83.9492 72.6806 84.524 71.7068 84.9016L72.4299 86.7663C73.753 86.2533 74.818 85.4337 75.5851 84.3039L73.9305 83.1804ZM71.8258 86.8041C72.9363 87.0818 73.763 87.6247 74.3632 88.4218L75.961 87.2188C75.0612 86.0238 73.8254 85.2425 72.3109 84.8638L71.8258 86.8041ZM74.3678 88.4278C74.9767 89.224 75.3047 90.2204 75.3047 91.4766H77.3047C77.3047 89.8499 76.871 88.4088 75.9565 87.2129L74.3678 88.4278ZM75.3047 91.4766C75.3047 93.7085 74.6046 95.2538 73.3217 96.2878L74.5767 97.845C76.4344 96.3478 77.3047 94.1665 77.3047 91.4766H75.3047ZM73.3217 96.2878C71.9898 97.3613 70.0037 97.9776 67.2263 98L67.2424 100C70.2776 99.9755 72.768 99.3028 74.5767 97.845L73.3217 96.2878ZM67.2344 98H57.2852V100H67.2344V98ZM61.5586 87.8555V94.7637H63.5586V87.8555H61.5586ZM62.5586 95.7637H67.0762V93.7637H62.5586V95.7637ZM67.0762 95.7637C68.4675 95.7637 69.6939 95.4351 70.6231 94.6477L69.33 93.1219C68.8764 93.5063 68.1692 93.7637 67.0762 93.7637V95.7637ZM70.6242 94.6467C71.5815 93.833 72.0312 92.7174 72.0312 91.4238H70.0312C70.0312 92.2162 69.7779 92.7412 69.3289 93.1228L70.6242 94.6467ZM72.0312 91.4238C72.0312 90.0877 71.6835 88.905 70.8218 88.06C69.9662 87.2209 68.7668 86.8753 67.4071 86.8556L67.3781 88.8554C68.4441 88.8708 69.0641 89.1375 69.4214 89.4879C69.7726 89.8323 70.0312 90.4162 70.0312 91.4238H72.0312ZM67.3926 86.8555H62.5586V88.8555H67.3926V86.8555ZM62.5586 85.1289H66.4609V83.1289H62.5586V85.1289ZM66.4786 85.1288C67.9125 85.1035 69.1665 84.8062 70.077 84.0802C71.0323 83.3185 71.4512 82.2149 71.4512 80.9473H69.4512C69.4512 81.7539 69.205 82.2176 68.8302 82.5165C68.4106 82.851 67.6695 83.1075 66.4433 83.1291L66.4786 85.1288ZM71.4512 80.9473C71.4512 79.5968 71.0482 78.4048 70.0272 77.6479L68.8361 79.2545C69.1745 79.5054 69.4512 79.9774 69.4512 80.9473H71.4512ZM70.0427 77.6596C69.1125 76.9415 67.7805 76.6777 66.25 76.6777V78.6777C67.6257 78.6777 68.4148 78.9296 68.8206 79.2428L70.0427 77.6596ZM66.25 76.6777H62.5586V78.6777H66.25V76.6777ZM61.5586 77.6777V84.1289H63.5586V77.6777H61.5586ZM85.3047 99V100H86.3047V99H85.3047ZM80.207 99H79.207V100H80.207V99ZM80.207 72V71H79.207V72H80.207ZM85.3047 72H86.3047V71H85.3047V72ZM85.3047 98H80.207V100H85.3047V98ZM81.207 99V72H79.207V99H81.207ZM80.207 73H85.3047V71H80.207V73ZM84.3047 72V99H86.3047V72H84.3047ZM92.9336 80.8418L92.4256 79.9804L92.4224 79.9823L92.9336 80.8418ZM103.973 81.9844L103.276 82.7018L103.279 82.7043L103.973 81.9844ZM106.697 88.3828L107.697 88.3558L107.696 88.3346L107.695 88.3134L106.697 88.3828ZM106.732 89.6836H107.732V89.6701L107.732 89.6566L106.732 89.6836ZM104.289 96.7148L105.023 97.3945L105.025 97.3921L104.289 96.7148ZM91.1582 96.7148L90.4247 97.3945L90.4271 97.3972L91.1582 96.7148ZM94.8145 93.832L93.998 94.4095L94.0014 94.4142L94.8145 93.832ZM100.615 93.8496L101.42 94.4432L101.424 94.4384L100.615 93.8496ZM94.8145 85.2012L95.6309 85.7786L95.6341 85.774L94.8145 85.2012ZM89.7148 89.3145C89.7148 87.5583 90.0522 86.0314 90.7019 84.711L88.9074 83.828C88.104 85.4608 87.7148 87.2971 87.7148 89.3145H89.7148ZM90.7019 84.711C91.3467 83.4008 92.2588 82.4067 93.4448 81.7012L92.4224 79.9823C90.8896 80.8941 89.7158 82.1851 88.9074 83.828L90.7019 84.711ZM93.4416 81.7032C94.639 80.997 96.0469 80.6289 97.6973 80.6289V78.6289C95.7383 78.6289 93.9703 79.0694 92.4256 79.9804L93.4416 81.7032ZM97.6973 80.6289C100.043 80.6289 101.872 81.3382 103.276 82.7018L104.669 81.2669C102.839 79.4899 100.485 78.6289 97.6973 78.6289V80.6289ZM103.279 82.7043C104.696 84.0706 105.526 85.9532 105.7 88.4522L107.695 88.3134C107.494 85.4218 106.507 83.0388 104.667 81.2644L103.279 82.7043ZM105.698 88.4098L105.733 89.7106L107.732 89.6566L107.697 88.3558L105.698 88.4098ZM105.732 89.6836C105.732 92.407 104.978 94.4903 103.553 96.0376L105.025 97.3921C106.858 95.4003 107.732 92.7961 107.732 89.6836H105.732ZM103.556 96.0351C102.144 97.5585 100.24 98.3516 97.7324 98.3516V100.352C100.709 100.352 103.176 99.3869 105.023 97.3945L103.556 96.0351ZM97.7324 98.3516C95.2246 98.3516 93.3134 97.5584 91.8893 96.0325L90.4271 97.3972C92.2842 99.3869 94.7558 100.352 97.7324 100.352V98.3516ZM91.8917 96.0351C90.4757 94.5071 89.7148 92.383 89.7148 89.543H87.7148C87.7148 92.7498 88.5829 95.407 90.4247 97.3945L91.8917 96.0351ZM89.7148 89.543V89.3145H87.7148V89.543H89.7148ZM92.7949 89.6836C92.7949 91.5919 93.1506 93.2114 93.998 94.4095L95.6309 93.2546C95.1189 92.5308 94.7949 91.3847 94.7949 89.6836H92.7949ZM94.0014 94.4142C94.8866 95.6504 96.176 96.2559 97.7324 96.2559V94.2559C96.7576 94.2559 96.1017 93.9121 95.6275 93.2498L94.0014 94.4142ZM97.7324 96.2559C99.2595 96.2559 100.528 95.6526 101.42 94.4432L99.8104 93.2561C99.3196 93.9216 98.6662 94.2559 97.7324 94.2559V96.2559ZM101.424 94.4384C102.303 93.2304 102.652 91.4569 102.652 89.3145H100.652C100.652 91.3204 100.31 92.5704 99.8069 93.2608L101.424 94.4384ZM102.652 89.3145C102.652 87.4324 102.287 85.8275 101.43 84.6218L99.8002 85.7806C100.326 86.5202 100.652 87.6574 100.652 89.3145H102.652ZM101.43 84.6218C100.54 83.3698 99.2555 82.7422 97.6973 82.7422V84.7422C98.6468 84.7422 99.3073 85.0872 99.8002 85.7806L101.43 84.6218ZM97.6973 82.7422C96.1466 82.7422 94.8717 83.3735 93.9948 84.6284L95.6341 85.774C96.1166 85.0836 96.7635 84.7422 97.6973 84.7422V82.7422ZM93.998 84.6237C93.14 85.8368 92.7949 87.5826 92.7949 89.6836H94.7949C94.7949 87.7299 95.1295 86.4874 95.6309 85.7786L93.998 84.6237ZM111.197 82.3008L110.41 81.6843L110.407 81.6876L111.197 82.3008ZM121.691 81.7734L120.915 82.4036L122.408 84.2432L122.685 81.8903L121.691 81.7734ZM121.902 79.9805V78.9805H121.013L120.909 79.8636L121.902 79.9805ZM126.508 79.9805H127.508V78.9805H126.508V79.9805ZM125.365 102.709L124.515 102.183L124.511 102.189L125.365 102.709ZM113.289 105.645L113.68 104.724L113.673 104.721L113.289 105.645ZM110.283 103.5L109.474 102.912L109.033 103.518L109.492 104.112L110.283 103.5ZM112.533 100.406L113.279 99.7404L112.454 98.8154L111.724 99.8181L112.533 100.406ZM120.285 101.443L119.595 100.719L119.589 100.725L120.285 101.443ZM121.41 97.3652H122.41V94.7263L120.661 96.7025L121.41 97.3652ZM111.232 96.6797L110.446 97.2968L110.45 97.3025L111.232 96.6797ZM115.24 93.7793L114.422 94.3541L114.425 94.3587L115.24 93.7793ZM121.41 93.498L122.277 93.997L122.41 93.7654V93.498H121.41ZM121.41 85.5H122.41V85.2286L122.273 84.9945L121.41 85.5ZM115.24 85.2539L114.423 84.6772L114.419 84.6837L115.24 85.2539ZM110.123 89.3496C110.123 86.5879 110.776 84.4741 111.987 82.914L110.407 81.6876C108.853 83.6899 108.123 86.2754 108.123 89.3496H110.123ZM111.985 82.9172C113.181 81.3895 114.76 80.6289 116.822 80.6289V78.6289C114.174 78.6289 112.003 79.6496 110.41 81.6843L111.985 82.9172ZM116.822 80.6289C118.652 80.6289 119.971 81.2408 120.915 82.4036L122.468 81.1433C121.091 79.4467 119.164 78.6289 116.822 78.6289V80.6289ZM122.685 81.8903L122.895 80.0973L120.909 79.8636L120.698 81.6566L122.685 81.8903ZM121.902 80.9805H126.508V78.9805H121.902V80.9805ZM125.508 79.9805V98.3672H127.508V79.9805H125.508ZM125.508 98.3672C125.508 99.8737 125.165 101.133 124.515 102.183L126.215 103.235C127.089 101.824 127.508 100.189 127.508 98.3672H125.508ZM124.511 102.189C123.869 103.243 122.961 104.051 121.758 104.616L122.609 106.426C124.148 105.703 125.362 104.636 126.219 103.229L124.511 102.189ZM121.758 104.616C120.546 105.186 119.091 105.488 117.367 105.488V107.488C119.323 107.488 121.079 107.146 122.609 106.426L121.758 104.616ZM117.367 105.488C116.111 105.488 114.885 105.236 113.68 104.724L112.898 106.565C114.342 107.178 115.834 107.488 117.367 107.488V105.488ZM113.673 104.721C112.464 104.218 111.621 103.595 111.074 102.888L109.492 104.112C110.305 105.162 111.466 105.969 112.905 106.568L113.673 104.721ZM111.092 104.088L113.342 100.994L111.724 99.8181L109.474 102.912L111.092 104.088ZM111.787 101.072C113.231 102.69 115.032 103.533 117.139 103.533V101.533C115.636 101.533 114.367 100.959 113.279 99.7404L111.787 101.072ZM117.139 103.533C118.668 103.533 119.995 103.117 120.981 102.162L119.589 100.725C119.076 101.223 118.305 101.533 117.139 101.533V103.533ZM120.975 102.167C121.975 101.215 122.41 99.9022 122.41 98.3848H120.41C120.41 99.5158 120.096 100.242 119.595 100.719L120.975 102.167ZM122.41 98.3848V97.3652H120.41V98.3848H122.41ZM120.661 96.7025C119.696 97.7936 118.437 98.3516 116.787 98.3516V100.352C118.958 100.352 120.781 99.5853 122.159 98.028L120.661 96.7025ZM116.787 98.3516C114.805 98.3516 113.242 97.5988 112.015 96.0569L110.45 97.3025C112.059 99.3231 114.199 100.352 116.787 100.352V98.3516ZM112.019 96.0625C110.787 94.4918 110.123 92.3567 110.123 89.5605H108.123C108.123 92.6707 108.865 95.2816 110.446 97.2968L112.019 96.0625ZM110.123 89.5605V89.3496H108.123V89.5605H110.123ZM113.203 89.7188C113.203 91.5618 113.571 93.1429 114.422 94.3541L116.059 93.2045C115.526 92.447 115.203 91.321 115.203 89.7188H113.203ZM114.425 94.3587C115.307 95.5988 116.562 96.2383 118.088 96.2383V94.2383C117.2 94.2383 116.557 93.9051 116.055 93.1999L114.425 94.3587ZM118.088 96.2383C119.926 96.2383 121.399 95.5208 122.277 93.997L120.544 92.9991C120.085 93.7956 119.344 94.2383 118.088 94.2383V96.2383ZM122.41 93.498V85.5H120.41V93.498H122.41ZM122.273 84.9945C121.389 83.4849 119.937 82.7598 118.123 82.7598V84.7598C119.333 84.7598 120.072 85.1948 120.547 86.0055L122.273 84.9945ZM118.123 82.7598C116.579 82.7598 115.314 83.4158 114.423 84.6772L116.057 85.8306C116.573 85.0998 117.229 84.7598 118.123 84.7598V82.7598ZM114.419 84.6837C113.558 85.923 113.203 87.6519 113.203 89.7188H115.203C115.203 87.8246 115.539 86.577 116.062 85.8241L114.419 84.6837Z" fill="black"/>
<path d="M138.558 204.651H52.9761C52.2154 204.651 51.4844 204.363 50.946 203.85C50.4076 203.337 50.1063 202.642 50.1063 201.917C81.1307 198.48 111.57 198.48 141.428 201.917C141.428 202.642 141.127 203.337 140.589 203.85C140.05 204.363 139.319 204.651 138.558 204.651Z" fill="#CCCCCC"/>
<path d="M141.428 202.075L50.1063 201.916L60.6889 184.944L60.7408 184.863V147.457C60.7408 147.002 60.8347 146.552 61.0174 146.135C61.1977 145.716 61.4669 145.334 61.8028 145.013C62.1387 144.692 62.5387 144.437 62.9808 144.263C63.4204 144.088 63.8922 144 64.3688 144H126.659C127.136 144 127.608 144.088 128.047 144.263C128.49 144.437 128.887 144.692 129.225 145.013C129.561 145.334 129.828 145.716 130.011 146.135C130.194 146.552 130.287 147.002 130.287 147.457V185.121L141.428 202.075Z" fill="#E6E6E6"/>
<path d="M64.2849 146.412C63.9713 146.412 63.6724 146.531 63.4501 146.743C63.2279 146.953 63.1044 147.241 63.1044 147.539V181.645C63.1044 181.943 63.2279 182.229 63.4501 182.441C63.6724 182.651 63.9713 182.769 64.2849 182.769H127.25C127.563 182.769 127.862 182.651 128.085 182.441C128.307 182.229 128.43 181.943 128.43 181.645V147.539C128.43 147.241 128.307 146.953 128.085 146.743C127.862 146.531 127.563 146.412 127.25 146.412H64.2849Z" fill="white"/>
<path d="M64.6998 187.276C64.6035 187.276 64.5071 187.301 64.4256 187.352C64.3441 187.402 64.2799 187.473 64.2379 187.556L60.9779 194.314C60.9433 194.387 60.926 194.468 60.9335 194.549C60.9384 194.63 60.9656 194.708 61.0125 194.776C61.057 194.842 61.1212 194.9 61.1953 194.938C61.2694 194.976 61.3533 194.996 61.4373 194.996H130.021C130.107 194.996 130.191 194.976 130.268 194.936C130.342 194.895 130.406 194.839 130.451 194.769C130.497 194.698 130.522 194.62 130.527 194.536C130.53 194.455 130.512 194.372 130.473 194.299L126.929 187.541C126.887 187.463 126.823 187.395 126.741 187.347C126.662 187.299 126.571 187.276 126.477 187.276H64.6998Z" fill="#CCCCCC"/>
<path d="M95.514 145.85C95.9339 145.85 96.2747 145.526 96.2747 145.127C96.2747 144.725 95.9339 144.402 95.514 144.402C95.0942 144.402 94.7533 144.725 94.7533 145.127C94.7533 145.526 95.0942 145.85 95.514 145.85Z" fill="white"/>
<path d="M88.7716 196.284C88.6604 196.286 88.5518 196.319 88.4653 196.385C88.3764 196.448 88.3122 196.539 88.2826 196.643L87.4651 199.539C87.4453 199.609 87.4429 199.685 87.4577 199.756C87.4725 199.829 87.5046 199.897 87.5516 199.956C87.6009 200.016 87.6602 200.064 87.7293 200.097C87.801 200.13 87.8775 200.145 87.9541 200.145H103.513C103.592 200.145 103.671 200.127 103.743 200.092C103.817 200.057 103.879 200.006 103.926 199.943C103.97 199.88 104.002 199.809 104.012 199.731C104.024 199.655 104.017 199.579 103.99 199.506L102.938 196.61C102.903 196.514 102.839 196.433 102.755 196.375C102.669 196.317 102.565 196.284 102.461 196.284H88.7716Z" fill="#CCCCCC"/>
<path d="M130.287 184.298V184.942H60.6887L60.743 184.861V184.298H130.287Z" fill="#CCCCCC"/>
<path d="M121.698 185.773C121.671 185.773 121.643 185.783 121.621 185.798C121.601 185.813 121.584 185.836 121.577 185.861L121.379 186.566C121.374 186.584 121.374 186.602 121.377 186.62C121.382 186.637 121.389 186.652 121.399 186.668C121.411 186.683 121.426 186.693 121.443 186.703C121.461 186.711 121.478 186.713 121.498 186.713H125.286C125.306 186.713 125.326 186.711 125.343 186.7C125.36 186.693 125.375 186.68 125.387 186.665C125.397 186.65 125.405 186.632 125.407 186.612C125.412 186.594 125.41 186.577 125.402 186.559L125.145 185.854C125.138 185.829 125.123 185.811 125.101 185.796C125.081 185.781 125.056 185.773 125.029 185.773H121.698Z" fill="#CCCCCC"/>
<path d="M116.165 185.773C116.138 185.773 116.111 185.783 116.091 185.798C116.069 185.813 116.054 185.836 116.047 185.861L115.847 186.566C115.842 186.584 115.842 186.602 115.844 186.62C115.849 186.637 115.857 186.652 115.869 186.668C115.879 186.683 115.894 186.693 115.911 186.703C115.928 186.711 115.948 186.713 115.965 186.713H119.754C119.774 186.713 119.793 186.711 119.811 186.7C119.828 186.693 119.843 186.68 119.855 186.665C119.868 186.65 119.875 186.632 119.877 186.612C119.88 186.594 119.877 186.577 119.87 186.559L119.616 185.854C119.606 185.829 119.591 185.811 119.569 185.796C119.549 185.781 119.524 185.773 119.497 185.773H116.165Z" fill="#CCCCCC"/>
<path d="M100.14 190.253H100.436L99.8412 152.43H99.5448L99.5571 153.183H92.9013L92.9137 152.43H92.6173L92.0246 190.253H92.3209L92.358 187.802H100.1L100.14 190.253ZM99.7103 162.993H92.7482L92.8198 158.371H99.6387L99.7103 162.993ZM99.7152 163.277L99.7893 167.899H92.6716L92.7432 163.277H99.7152ZM99.7918 168.182L99.8659 172.804H92.5951L92.6667 168.182H99.7918ZM99.8708 173.087L99.9424 177.709H92.5161L92.5902 173.087H99.8708ZM99.9474 177.992L100.019 182.614H92.4395L92.5136 177.992H99.9474ZM99.5621 153.466L99.6337 158.088H92.8248L92.8989 153.466H99.5621ZM92.3629 187.519L92.437 182.897H100.024L100.096 187.519H92.3629Z" fill="#3F3D56"/>
<path d="M94.758 165.456C97.4327 165.456 99.5986 163.392 99.5986 160.842C99.5986 158.295 97.4327 156.228 94.758 156.228C92.0833 156.228 89.9174 158.295 89.9174 160.842C89.9174 163.392 92.0833 165.456 94.758 165.456Z" fill="#2F2E41"/>
<path d="M97.606 164.033L96.1587 164.283L96.6279 166.754L98.0752 166.504L97.606 164.033Z" fill="#2F2E41"/>
<path d="M94.7109 164.531L93.2637 164.781L93.7329 167.252L95.1801 167.002L94.7109 164.531Z" fill="#2F2E41"/>
<path d="M94.5012 167.772C95.0173 167.355 95.3038 166.867 95.1408 166.683C94.9753 166.498 94.4246 166.688 93.9085 167.105C93.3898 167.522 93.1058 168.01 93.2688 168.194C93.4343 168.379 93.985 168.189 94.5012 167.772Z" fill="#2F2E41"/>
<path d="M97.3369 167.284C97.8531 166.867 98.1396 166.379 97.9741 166.195C97.8111 166.01 97.2604 166.197 96.7418 166.614C96.2256 167.031 95.9391 167.519 96.1046 167.703C96.2676 167.888 96.8208 167.701 97.3369 167.284Z" fill="#2F2E41"/>
<path d="M94.4197 161.292C95.3335 161.292 96.0743 160.584 96.0743 159.715C96.0743 158.843 95.3335 158.136 94.4197 158.136C93.5059 158.136 92.765 158.843 92.765 159.715C92.765 160.584 93.5059 161.292 94.4197 161.292Z" fill="white"/>
<path d="M93.7379 159.675C94.0442 159.675 94.2911 159.44 94.2911 159.15C94.2911 158.859 94.0442 158.624 93.7379 158.624C93.4341 158.624 93.1872 158.859 93.1872 159.15C93.1872 159.44 93.4341 159.675 93.7379 159.675Z" fill="#3F3D56"/>
<path d="M98.5788 155.826C98.6504 154.118 97.1069 152.67 95.1262 152.594C93.1479 152.518 91.4859 153.84 91.4142 155.548C91.3401 157.256 92.7158 157.646 94.694 157.721C96.6722 157.797 98.5047 157.534 98.5788 155.826Z" fill="#6C63FF"/>
<path d="M92.6466 160.519C92.7404 160.127 91.76 159.581 90.4585 159.296C89.1545 159.013 88.0209 159.096 87.9271 159.488C87.8332 159.877 88.8137 160.423 90.1177 160.709C91.4217 160.994 92.5528 160.908 92.6466 160.519Z" fill="#2F2E41"/>
<path d="M102.153 162.022C102.244 161.633 101.266 161.087 99.9619 160.802C98.6579 160.519 97.5268 160.602 97.433 160.994C97.3391 161.383 98.3196 161.929 99.6211 162.214C100.925 162.5 102.059 162.414 102.153 162.022Z" fill="#2F2E41"/>
<path d="M96.0867 162.664C96.1138 162.8 96.1114 162.939 96.0818 163.073C96.0497 163.21 95.9928 163.336 95.9089 163.45C95.8274 163.563 95.7237 163.662 95.6002 163.735C95.4792 163.811 95.3433 163.862 95.2 163.887C95.0568 163.912 94.9111 163.91 94.7704 163.879C94.6271 163.852 94.4937 163.796 94.3752 163.718C94.2542 163.639 94.1529 163.538 94.0764 163.422C93.9973 163.306 93.943 163.177 93.9183 163.04L93.9158 163.038C93.8071 162.467 94.2714 162.265 94.8716 162.161C95.4717 162.057 95.9805 162.093 96.0867 162.664Z" fill="white"/>
<path d="M78.3595 176.517C78.8485 175.296 78.9202 174.187 78.5176 174.04C78.1175 173.896 77.3939 174.765 76.9049 175.986C76.4159 177.206 76.3442 178.313 76.7468 178.46C77.1494 178.606 77.8705 177.735 78.3595 176.517Z" fill="#2F2E41"/>
<path d="M77.9447 180.579C78.3843 178.001 76.5469 175.57 73.8401 175.153C71.1333 174.734 68.5846 176.485 68.145 179.063C67.7079 181.643 69.5453 184.072 72.2496 184.491C74.9564 184.908 77.5051 183.157 77.9447 180.579Z" fill="#2F2E41"/>
<path d="M72.291 183.534H70.782V186.109H72.291V183.534Z" fill="#2F2E41"/>
<path d="M75.3071 183.534H73.7982V186.109H75.3071V183.534Z" fill="#2F2E41"/>
<path d="M72.0391 186.587C72.733 186.587 73.2961 186.387 73.2961 186.139C73.2961 185.889 72.733 185.689 72.0391 185.689C71.3451 185.689 70.782 185.889 70.782 186.139C70.782 186.387 71.3451 186.587 72.0391 186.587Z" fill="#2F2E41"/>
<path d="M75.0552 186.53C75.7492 186.53 76.3123 186.328 76.3123 186.08C76.3123 185.833 75.7492 185.63 75.0552 185.63C74.3613 185.63 73.7982 185.833 73.7982 186.08C73.7982 186.328 74.3613 186.53 75.0552 186.53Z" fill="#2F2E41"/>
<path d="M68.2312 175.423C67.8287 173.714 69.1104 171.986 71.0911 171.564C73.0718 171.142 75.0031 172.186 75.4032 173.896C75.8058 175.607 74.4919 176.239 72.5112 176.661C70.5305 177.081 68.6313 177.134 68.2312 175.423Z" fill="#6C63FF"/>
<path d="M69.6957 178.641C69.8809 178.27 69.0264 177.517 67.7891 176.956C66.5493 176.397 65.3959 176.243 65.2132 176.615C65.0279 176.984 65.8825 177.739 67.1198 178.298C68.3596 178.859 69.5129 179.01 69.6957 178.641Z" fill="#2F2E41"/>
<path d="M51.5537 189.341C54.295 189.341 56.5177 187.223 56.5177 184.61C56.5177 182 54.295 179.882 51.5537 179.882C48.8148 179.882 46.592 182 46.592 184.61C46.592 187.223 48.8148 189.341 51.5537 189.341Z" fill="#2F2E41"/>
<path d="M50.8004 188.324H49.2939V190.899H50.8004V188.324Z" fill="#2F2E41"/>
<path d="M53.8153 188.324H52.3088V190.899H53.8153V188.324Z" fill="#2F2E41"/>
<path d="M50.5485 191.379C51.2425 191.379 51.8056 191.177 51.8056 190.929C51.8056 190.682 51.2425 190.479 50.5485 190.479C49.8545 190.479 49.2939 190.682 49.2939 190.929C49.2939 191.177 49.8545 191.379 50.5485 191.379Z" fill="#2F2E41"/>
<path d="M53.5634 191.318C54.2574 191.318 54.8205 191.115 54.8205 190.868C54.8205 190.62 54.2574 190.418 53.5634 190.418C52.8695 190.418 52.3088 190.62 52.3088 190.868C52.3088 191.115 52.8695 191.318 53.5634 191.318Z" fill="#2F2E41"/>
<path d="M51.6791 185.031C52.6176 185.031 53.3757 184.308 53.3757 183.416C53.3757 182.522 52.6176 181.799 51.6791 181.799C50.7431 181.799 49.9824 182.522 49.9824 183.416C49.9824 184.308 50.7431 185.031 51.6791 185.031Z" fill="white"/>
<path d="M51.6792 183.954C51.9928 183.954 52.2447 183.711 52.2447 183.416C52.2447 183.118 51.9928 182.875 51.6792 182.875C51.368 182.875 51.1136 183.118 51.1136 183.416C51.1136 183.711 51.368 183.954 51.6792 183.954Z" fill="#3F3D56"/>
<path d="M46.7397 180.215C46.3396 178.504 47.6189 176.776 49.602 176.354C51.5827 175.932 53.514 176.978 53.9141 178.689C54.3142 180.397 53.0004 181.029 51.0197 181.451C49.039 181.873 47.1398 181.926 46.7397 180.215Z" fill="#E6E6E6"/>
<path d="M55.174 167.711C55.663 166.493 55.7346 165.383 55.332 165.237C54.9294 165.09 54.2082 165.962 53.7168 167.183C53.2278 168.401 53.1586 169.51 53.5587 169.657C53.9613 169.803 54.685 168.931 55.174 167.711Z" fill="#2F2E41"/>
<path d="M54.7566 171.777C55.1962 169.197 53.3587 166.768 50.6544 166.349C47.9476 165.932 45.3989 167.683 44.9593 170.261C44.5197 172.841 46.3571 175.27 49.0639 175.689C51.7682 176.106 54.3195 174.355 54.7566 171.777Z" fill="#2F2E41"/>
<path d="M49.1036 174.733H47.597V177.308H49.1036V174.733Z" fill="#2F2E41"/>
<path d="M52.119 174.733H50.6125V177.308H52.119V174.733Z" fill="#2F2E41"/>
<path d="M48.8541 177.788C49.5481 177.788 50.1087 177.586 50.1087 177.338C50.1087 177.09 49.5481 176.888 48.8541 176.888C48.1601 176.888 47.597 177.09 47.597 177.338C47.597 177.586 48.1601 177.788 48.8541 177.788Z" fill="#2F2E41"/>
<path d="M51.8696 177.726C52.5636 177.726 53.1242 177.524 53.1242 177.276C53.1242 177.029 52.5636 176.827 51.8696 176.827C51.1756 176.827 50.6125 177.029 50.6125 177.276C50.6125 177.524 51.1756 177.726 51.8696 177.726Z" fill="#2F2E41"/>
<path d="M49.9825 171.439C50.921 171.439 51.6792 170.714 51.6792 169.822C51.6792 168.93 50.921 168.205 49.9825 168.205C49.0465 168.205 48.2883 168.93 48.2883 169.822C48.2883 170.714 49.0465 171.439 49.9825 171.439Z" fill="white"/>
<path d="M49.9822 170.363C50.2959 170.363 50.5478 170.12 50.5478 169.822C50.5478 169.526 50.2959 169.284 49.9822 169.284C49.671 169.284 49.4166 169.526 49.4166 169.822C49.4166 170.12 49.671 170.363 49.9822 170.363Z" fill="#3F3D56"/>
<path d="M45.0433 166.619C44.6433 164.908 45.925 163.182 47.9057 162.76C49.8864 162.338 51.8177 163.381 52.2178 165.092C52.6179 166.803 51.3065 167.435 49.3233 167.857C47.3426 168.276 45.4434 168.329 45.0433 166.619Z" fill="#6C63FF"/>
<path d="M46.5102 169.836C46.6954 169.467 45.8409 168.711 44.6011 168.153C43.3638 167.592 42.2105 167.44 42.0252 167.809C41.84 168.181 42.6945 168.934 43.9343 169.495C45.1716 170.053 46.3249 170.207 46.5102 169.836Z" fill="#2F2E41"/>
<path d="M47.4193 172.727C47.4193 173.189 48.6714 174.104 50.0594 174.104C51.4474 174.104 52.7489 172.8 52.7489 172.338C52.7489 171.875 51.4474 172.429 50.0594 172.429C48.6714 172.429 47.4193 172.264 47.4193 172.727Z" fill="white"/>
<path d="M54.7366 152.959C54.6452 152.959 54.5588 152.994 54.4921 153.055C54.4279 153.118 54.3908 153.202 54.3908 153.288V166.909C54.3908 166.994 54.4279 167.078 54.4921 167.141C54.5588 167.202 54.6452 167.237 54.7366 167.237H87.8132C87.9046 167.237 87.991 167.202 88.0577 167.141C88.1219 167.078 88.159 166.994 88.159 166.909V153.288C88.159 153.202 88.1219 153.118 88.0577 153.055C87.991 152.994 87.9046 152.959 87.8132 152.959H54.7366Z" fill="#6C63FF"/>
<path d="M63.6672 163.297C65.522 163.297 67.0235 161.864 67.0235 160.098C67.0235 158.331 65.522 156.898 63.6672 156.898C61.8149 156.898 60.3134 158.331 60.3134 160.098C60.3134 161.864 61.8149 163.297 63.6672 163.297Z" fill="white"/>
<path d="M71.2415 159.673C71.1403 159.673 71.0415 159.713 70.9699 159.784C70.8983 159.855 70.8563 159.948 70.8563 160.047C70.8563 160.143 70.8983 160.239 70.9699 160.307C71.0415 160.378 71.1403 160.418 71.2415 160.421H81.8391C81.8909 160.421 81.9427 160.411 81.9897 160.393C82.0366 160.375 82.081 160.35 82.1181 160.315C82.1551 160.282 82.1848 160.239 82.2045 160.196C82.2268 160.15 82.2367 160.102 82.2391 160.052C82.2391 160.004 82.2293 159.953 82.2095 159.908C82.1922 159.862 82.1625 159.822 82.128 159.787C82.0909 159.751 82.0489 159.723 82.002 159.703C81.9551 159.683 81.9032 159.673 81.8513 159.673C81.8464 159.673 81.844 159.673 81.8391 159.673H71.2415Z" fill="white"/>
<path d="M71.2415 157.507C71.1403 157.507 71.0415 157.547 70.9699 157.618C70.8983 157.686 70.8563 157.782 70.8563 157.878C70.8563 157.977 70.8983 158.073 70.9699 158.141C71.0415 158.212 71.1403 158.252 71.2415 158.252H76.5341C76.586 158.255 76.6379 158.245 76.6848 158.227C76.7317 158.209 76.7762 158.182 76.8132 158.149C76.8503 158.113 76.8799 158.073 76.9021 158.027C76.9218 157.984 76.9317 157.934 76.9342 157.886C76.9342 157.835 76.9243 157.787 76.9071 157.742C76.8873 157.696 76.8577 157.653 76.8231 157.62C76.7861 157.585 76.7441 157.555 76.6972 157.537C76.6502 157.517 76.5984 157.507 76.5465 157.507C76.5416 157.504 76.5391 157.504 76.5341 157.507H71.2415Z" fill="white"/>
<path d="M71.2415 161.942C71.1403 161.945 71.0415 161.983 70.9699 162.054C70.8983 162.124 70.8563 162.218 70.8563 162.316C70.8563 162.415 70.8983 162.508 70.9699 162.579C71.0415 162.647 71.1403 162.688 71.2415 162.69H81.8391C81.8909 162.69 81.9427 162.683 81.9897 162.665C82.0366 162.645 82.081 162.62 82.1181 162.584C82.1551 162.551 82.1848 162.511 82.2045 162.465C82.2268 162.42 82.2367 162.372 82.2391 162.321C82.2391 162.273 82.2293 162.225 82.2095 162.177C82.1922 162.132 82.1625 162.091 82.128 162.056C82.0909 162.021 82.0489 161.993 82.002 161.973C81.9551 161.952 81.9032 161.942 81.8513 161.942C81.8464 161.942 81.844 161.942 81.8391 161.942H71.2415Z" fill="white"/>
<path d="M122.705 187.132C123.105 186.986 123.036 185.879 122.547 184.658C122.056 183.438 121.335 182.568 120.932 182.715C120.53 182.861 120.601 183.968 121.09 185.189C121.579 186.409 122.303 187.279 122.705 187.132Z" fill="#2F2E41"/>
<path d="M126.163 194.152C128.87 193.735 130.707 191.304 130.267 188.726C129.828 186.146 127.279 184.397 124.575 184.814C121.868 185.233 120.03 187.662 120.47 190.242C120.91 192.82 123.458 194.571 126.163 194.152Z" fill="#2F2E41"/>
<path d="M127.63 193.198H126.123L126.417 196.281L127.632 195.965L127.63 193.198Z" fill="#2F2E41"/>
<path d="M124.343 193.207H122.836L123.13 196.29L124.291 195.967L124.343 193.207Z" fill="#2F2E41"/>
<path d="M123.088 196.432C123.78 196.384 124.325 196.144 124.306 195.899C124.288 195.651 123.71 195.49 123.019 195.538C122.327 195.586 121.782 195.826 121.801 196.073C121.819 196.321 122.397 196.48 123.088 196.432Z" fill="#2F2E41"/>
<path d="M125.244 189.904C126.18 189.904 126.938 189.179 126.938 188.287C126.938 187.395 126.18 186.669 125.244 186.669C124.305 186.669 123.547 187.395 123.547 188.287C123.547 189.179 124.305 189.904 125.244 189.904Z" fill="white"/>
<path d="M125.244 188.826C125.555 188.826 125.809 188.585 125.809 188.287C125.809 187.989 125.555 187.749 125.244 187.749C124.93 187.749 124.678 187.989 124.678 188.287C124.678 188.585 124.93 188.826 125.244 188.826Z" fill="#3F3D56"/>
<path d="M131.241 186.633C132.053 185.582 132.434 184.533 132.088 184.29C131.742 184.045 130.801 184.7 129.986 185.751C129.171 186.802 128.793 187.851 129.139 188.093C129.485 188.339 130.426 187.684 131.241 186.633Z" fill="#2F2E41"/>
<path d="M122.947 191.924C122.947 191.542 123.977 190.789 125.123 190.789C126.267 190.789 127.338 191.863 127.338 192.245C127.338 192.626 126.267 192.169 125.123 192.169C123.977 192.169 122.947 192.305 122.947 191.924Z" fill="white"/>
<path d="M139.287 185.576L112.118 181.988C111.905 181.957 111.715 181.851 111.587 181.69C111.456 181.525 111.401 181.321 111.431 181.118L114.484 160.123C114.513 159.921 114.627 159.739 114.797 159.615C114.968 159.491 115.182 159.438 115.395 159.466L142.561 163.057C142.774 163.085 142.964 163.191 143.095 163.355C143.223 163.517 143.28 163.722 143.251 163.924L140.196 184.919C140.166 185.121 140.055 185.303 139.884 185.427C139.714 185.551 139.499 185.604 139.287 185.576Z" fill="#6C63FF"/>
<path d="M129.554 179.025L115.684 177.192C115.667 177.19 115.65 177.187 115.632 177.182L123.768 167.218C123.817 167.157 123.884 167.109 123.96 167.079C124.037 167.049 124.118 167.039 124.2 167.049C124.281 167.061 124.358 167.092 124.422 167.14C124.486 167.188 124.538 167.251 124.568 167.324L127.912 175.173L128.072 175.55L129.554 179.025Z" fill="white"/>
<path opacity="0.2" d="M129.553 179.023L124.817 178.396L127.61 175.485L127.812 175.275L127.911 175.172L128.072 175.548L129.553 179.023Z" fill="black"/>
<path d="M137.277 180.043L125.279 178.459L128.072 175.548L128.275 175.338L131.912 171.542C131.977 171.487 132.051 171.444 132.132 171.416C132.214 171.388 132.3 171.375 132.387 171.383C132.473 171.388 132.56 171.413 132.634 171.451C132.71 171.492 132.777 171.547 132.831 171.613C132.844 171.631 132.856 171.648 132.866 171.669L137.277 180.043Z" fill="white"/>
<path d="M129.722 170.601C130.868 170.601 131.796 169.714 131.796 168.622C131.796 167.53 130.868 166.646 129.722 166.646C128.576 166.646 127.647 167.53 127.647 168.622C127.647 169.714 128.576 170.601 129.722 170.601Z" fill="white"/>
<path d="M118.369 161.413L115.857 161.08L115.509 163.473L118.021 163.806L118.369 161.413Z" fill="#3F3D56"/>
<path d="M130.184 185.085C130.584 183.375 129.302 181.646 127.321 181.224C125.341 180.805 123.409 181.848 123.009 183.559C122.609 185.27 123.921 185.899 125.904 186.321C127.885 186.743 129.784 186.796 130.184 185.085Z" fill="#F2F2F2"/>
<path d="M126.395 196.426C127.087 196.378 127.633 196.138 127.613 195.89C127.596 195.645 127.018 195.483 126.326 195.531C125.635 195.579 125.089 195.819 125.106 196.067C125.126 196.312 125.701 196.474 126.395 196.426Z" fill="#2F2E41"/>
</svg>
