<svg width="568" height="197" viewBox="0 0 568 197" fill="none" xmlns="http://www.w3.org/2000/svg">
<path d="M43.4995 78.3682C43.4995 79.9463 43.2378 81.3252 42.7144 82.5049C42.191 83.6768 41.4683 84.6182 40.5464 85.3291L43.3003 87.5088L40.7574 89.665L37.0894 86.7119C36.7456 86.7588 36.4019 86.7822 36.0581 86.7822C34.605 86.7822 33.316 86.4463 32.191 85.7744C31.066 85.1025 30.187 84.1416 29.5542 82.8916C28.9292 81.6416 28.605 80.2041 28.5816 78.5791V77.6768C28.5816 75.9971 28.8863 74.5205 29.4956 73.2471C30.1128 71.9736 30.9878 70.9893 32.1206 70.2939C33.2613 69.5986 34.566 69.251 36.0347 69.251C37.48 69.251 38.7691 69.5947 39.9019 70.2822C41.0347 70.9697 41.9136 71.9502 42.5386 73.2236C43.1714 74.4893 43.4917 75.9424 43.4995 77.583V78.3682ZM39.316 77.6533C39.316 75.958 39.0308 74.6729 38.4605 73.7979C37.898 72.915 37.0894 72.4736 36.0347 72.4736C34.9488 72.4736 34.1324 72.9072 33.5855 73.7744C33.0386 74.6416 32.7613 75.9111 32.7535 77.583V78.3682C32.7535 80.0479 33.0308 81.3369 33.5855 82.2354C34.1402 83.126 34.9644 83.5713 36.0581 83.5713C37.105 83.5713 37.9058 83.1299 38.4605 82.2471C39.023 81.3643 39.3081 80.0947 39.316 78.4385V77.6533ZM52.9683 85.1768C52.1324 86.2471 51.0035 86.7822 49.5816 86.7822C48.191 86.7822 47.1363 86.3799 46.4175 85.5752C45.7066 84.7627 45.3511 83.5986 45.3511 82.083V73.8682H49.3003V82.1064C49.3003 83.1924 49.8277 83.7354 50.8824 83.7354C51.7886 83.7354 52.4331 83.4111 52.816 82.7627V73.8682H56.7886V86.5479H53.0855L52.9683 85.1768ZM65.0972 86.7822C63.1519 86.7822 61.5777 86.2041 60.3745 85.0479C59.1714 83.8838 58.5699 82.3721 58.5699 80.5127V80.1846C58.5699 78.8877 58.8081 77.7432 59.2847 76.751C59.7691 75.7588 60.4722 74.9932 61.3941 74.4541C62.316 73.9072 63.4097 73.6338 64.6753 73.6338C66.4566 73.6338 67.8628 74.1885 68.8941 75.2979C69.9253 76.3994 70.441 77.9385 70.441 79.915V81.4502H62.5894C62.73 82.1611 63.0386 82.7197 63.5152 83.126C63.9917 83.5322 64.6089 83.7354 65.3667 83.7354C66.6167 83.7354 67.5933 83.2979 68.2964 82.4229L70.1011 84.5557C69.6089 85.2354 68.9097 85.7783 68.0035 86.1846C67.105 86.583 66.1363 86.7822 65.0972 86.7822ZM64.6519 76.6807C63.4956 76.6807 62.8081 77.4463 62.5894 78.9775H66.5738V78.6729C66.5894 78.04 66.4292 77.5518 66.0933 77.208C65.7574 76.8564 65.2769 76.6807 64.6519 76.6807ZM79.5933 85.1768C78.7574 86.2471 77.6284 86.7822 76.2066 86.7822C74.8159 86.7822 73.7613 86.3799 73.0425 85.5752C72.3316 84.7627 71.9761 83.5986 71.9761 82.083V73.8682H75.9253V82.1064C75.9253 83.1924 76.4527 83.7354 77.5074 83.7354C78.4136 83.7354 79.0581 83.4111 79.4409 82.7627V73.8682H83.4136V86.5479H79.7105L79.5933 85.1768ZM91.7222 86.7822C89.7769 86.7822 88.2027 86.2041 86.9995 85.0479C85.7964 83.8838 85.1949 82.3721 85.1949 80.5127V80.1846C85.1949 78.8877 85.4331 77.7432 85.9097 76.751C86.3941 75.7588 87.0972 74.9932 88.0191 74.4541C88.9409 73.9072 90.0347 73.6338 91.3003 73.6338C93.0816 73.6338 94.4878 74.1885 95.5191 75.2979C96.5503 76.3994 97.0659 77.9385 97.0659 79.915V81.4502H89.2144C89.355 82.1611 89.6636 82.7197 90.1402 83.126C90.6167 83.5322 91.2339 83.7354 91.9917 83.7354C93.2417 83.7354 94.2183 83.2979 94.9214 82.4229L96.7261 84.5557C96.2339 85.2354 95.5347 85.7783 94.6284 86.1846C93.73 86.583 92.7613 86.7822 91.7222 86.7822ZM91.2769 76.6807C90.1206 76.6807 89.4331 77.4463 89.2144 78.9775H93.1988V78.6729C93.2144 78.04 93.0542 77.5518 92.7183 77.208C92.3824 76.8564 91.9019 76.6807 91.2769 76.6807Z" fill="white"/>
<path d="M266.185 17.958C266.185 17.3564 265.97 16.8877 265.541 16.5518C265.119 16.2158 264.373 15.8682 263.302 15.5088C262.232 15.1494 261.357 14.8018 260.677 14.4658C258.467 13.3799 257.361 11.8877 257.361 9.98926C257.361 9.04395 257.634 8.21191 258.181 7.49316C258.736 6.7666 259.517 6.2041 260.525 5.80566C261.533 5.39941 262.666 5.19629 263.924 5.19629C265.15 5.19629 266.248 5.41504 267.217 5.85254C268.193 6.29004 268.951 6.91504 269.49 7.72754C270.029 8.53223 270.299 9.4541 270.299 10.4932H266.197C266.197 9.79785 265.982 9.25879 265.552 8.87598C265.131 8.49316 264.556 8.30176 263.83 8.30176C263.095 8.30176 262.513 8.46582 262.084 8.79395C261.662 9.11426 261.451 9.52441 261.451 10.0244C261.451 10.4619 261.685 10.8604 262.154 11.2197C262.623 11.5713 263.447 11.9385 264.627 12.3213C265.806 12.6963 266.775 13.1025 267.533 13.54C269.377 14.6025 270.299 16.0674 270.299 17.9346C270.299 19.4268 269.736 20.5986 268.611 21.4502C267.486 22.3018 265.943 22.7275 263.982 22.7275C262.599 22.7275 261.345 22.4814 260.22 21.9893C259.103 21.4893 258.259 20.8096 257.689 19.9502C257.127 19.083 256.845 18.0869 256.845 16.9619H260.97C260.97 17.876 261.205 18.5518 261.674 18.9893C262.15 19.4189 262.92 19.6338 263.982 19.6338C264.662 19.6338 265.197 19.4893 265.588 19.2002C265.986 18.9033 266.185 18.4893 266.185 17.958ZM276.826 6.66113V9.81348H278.912V12.5557H276.826V18.3564C276.826 18.833 276.912 19.165 277.084 19.3525C277.256 19.54 277.595 19.6338 278.103 19.6338C278.494 19.6338 278.822 19.6104 279.088 19.5635V22.3877C278.377 22.6143 277.634 22.7275 276.861 22.7275C275.502 22.7275 274.498 22.4072 273.849 21.7666C273.201 21.126 272.877 20.1533 272.877 18.8486V12.5557H271.259V9.81348H272.877V6.66113H276.826ZM287.619 22.4932C287.478 22.2354 287.353 21.8564 287.244 21.3564C286.517 22.2705 285.502 22.7275 284.197 22.7275C283.002 22.7275 281.986 22.3682 281.15 21.6494C280.314 20.9229 279.896 20.0127 279.896 18.9189C279.896 17.5439 280.404 16.5049 281.42 15.8018C282.435 15.0986 283.912 14.7471 285.849 14.7471H287.068V14.0791C287.068 12.915 286.564 12.333 285.556 12.333C284.619 12.333 284.15 12.7939 284.15 13.7158H280.201C280.201 12.4893 280.72 11.4932 281.759 10.7275C282.806 9.96191 284.138 9.5791 285.756 9.5791C287.373 9.5791 288.65 9.97363 289.588 10.7627C290.525 11.5518 291.006 12.6338 291.029 14.0088V19.6221C291.045 20.7861 291.224 21.6768 291.568 22.2939V22.4932H287.619ZM285.146 19.915C285.638 19.915 286.045 19.8096 286.365 19.5986C286.693 19.3877 286.927 19.1494 287.068 18.8838V16.8564H285.92C284.545 16.8564 283.857 17.4736 283.857 18.708C283.857 19.0674 283.978 19.3604 284.22 19.5869C284.463 19.8057 284.771 19.915 285.146 19.915ZM298.588 19.6807C299.142 19.6807 299.572 19.5322 299.877 19.2354C300.181 18.9307 300.33 18.5088 300.322 17.9697H304.025C304.025 19.3604 303.525 20.501 302.525 21.3916C301.533 22.2822 300.252 22.7275 298.681 22.7275C296.838 22.7275 295.384 22.1494 294.322 20.9932C293.259 19.8369 292.728 18.2354 292.728 16.1885V16.0244C292.728 14.7432 292.963 13.6143 293.431 12.6377C293.908 11.6533 294.592 10.8994 295.482 10.376C296.373 9.84473 297.427 9.5791 298.646 9.5791C300.295 9.5791 301.603 10.0361 302.572 10.9502C303.541 11.8643 304.025 13.1025 304.025 14.665H300.322C300.322 14.0088 300.162 13.5049 299.842 13.1533C299.521 12.8018 299.092 12.626 298.552 12.626C297.529 12.626 296.931 13.2783 296.759 14.583C296.705 14.9971 296.677 15.5674 296.677 16.2939C296.677 17.5674 296.83 18.4502 297.134 18.9424C297.439 19.4346 297.924 19.6807 298.588 19.6807ZM310.787 17.7705L309.674 18.8838V22.4932H305.724V4.48145H309.674V14.0439L310.072 13.5166L313.049 9.81348H317.783L313.342 15.0283L318.076 22.4932H313.552L310.787 17.7705Z" fill="white"/>
<path d="M234.628 190.637H230.538V183.512H224.479V190.637H220.366V173.574H224.479V180.348H230.538V173.574H234.628V190.637ZM244.202 190.637C244.061 190.379 243.936 190 243.827 189.5C243.1 190.414 242.085 190.871 240.78 190.871C239.585 190.871 238.569 190.512 237.733 189.793C236.897 189.066 236.479 188.156 236.479 187.062C236.479 185.688 236.987 184.648 238.003 183.945C239.018 183.242 240.495 182.891 242.432 182.891H243.651V182.223C243.651 181.059 243.147 180.477 242.14 180.477C241.202 180.477 240.733 180.938 240.733 181.859H236.784C236.784 180.633 237.304 179.637 238.343 178.871C239.39 178.105 240.722 177.723 242.339 177.723C243.956 177.723 245.233 178.117 246.171 178.906C247.108 179.695 247.589 180.777 247.612 182.152V187.766C247.628 188.93 247.807 189.82 248.151 190.438V190.637H244.202ZM241.729 188.059C242.222 188.059 242.628 187.953 242.948 187.742C243.276 187.531 243.511 187.293 243.651 187.027V185H242.503C241.128 185 240.44 185.617 240.44 186.852C240.44 187.211 240.561 187.504 240.804 187.73C241.046 187.949 241.354 188.059 241.729 188.059ZM256.448 187.074C256.448 186.738 256.272 186.469 255.921 186.266C255.569 186.062 254.901 185.852 253.917 185.633C252.932 185.414 252.12 185.129 251.479 184.777C250.839 184.418 250.35 183.984 250.015 183.477C249.679 182.969 249.511 182.387 249.511 181.73C249.511 180.566 249.991 179.609 250.952 178.859C251.913 178.102 253.171 177.723 254.725 177.723C256.397 177.723 257.741 178.102 258.757 178.859C259.772 179.617 260.28 180.613 260.28 181.848H256.319C256.319 180.832 255.784 180.324 254.714 180.324C254.3 180.324 253.952 180.441 253.671 180.676C253.39 180.902 253.249 181.188 253.249 181.531C253.249 181.883 253.421 182.168 253.765 182.387C254.108 182.605 254.655 182.785 255.405 182.926C256.163 183.066 256.827 183.234 257.397 183.43C259.304 184.086 260.257 185.262 260.257 186.957C260.257 188.113 259.741 189.055 258.71 189.781C257.686 190.508 256.358 190.871 254.725 190.871C253.64 190.871 252.671 190.676 251.819 190.285C250.968 189.895 250.304 189.363 249.827 188.691C249.35 188.02 249.112 187.312 249.112 186.57H252.804C252.819 187.156 253.015 187.586 253.39 187.859C253.765 188.125 254.245 188.258 254.831 188.258C255.37 188.258 255.772 188.148 256.038 187.93C256.311 187.711 256.448 187.426 256.448 187.074ZM265.975 179.316C266.819 178.254 267.897 177.723 269.21 177.723C270.608 177.723 271.663 178.137 272.374 178.965C273.085 179.793 273.448 181.016 273.464 182.633V190.637H269.503V182.727C269.503 182.055 269.366 181.562 269.093 181.25C268.819 180.93 268.354 180.77 267.698 180.77C266.886 180.77 266.311 181.027 265.975 181.543V190.637H262.026V172.637H265.975V179.316ZM283.378 184.812H276.335V181.754H283.378V184.812ZM300.042 176.75H294.921V190.637H290.807V176.75H285.78V173.574H300.042V176.75ZM306.78 190.637C306.64 190.379 306.515 190 306.405 189.5C305.679 190.414 304.663 190.871 303.358 190.871C302.163 190.871 301.147 190.512 300.311 189.793C299.475 189.066 299.057 188.156 299.057 187.062C299.057 185.688 299.565 184.648 300.581 183.945C301.597 183.242 303.073 182.891 305.011 182.891H306.229V182.223C306.229 181.059 305.725 180.477 304.718 180.477C303.78 180.477 303.311 180.938 303.311 181.859H299.362C299.362 180.633 299.882 179.637 300.921 178.871C301.968 178.105 303.3 177.723 304.917 177.723C306.534 177.723 307.811 178.117 308.749 178.906C309.686 179.695 310.167 180.777 310.19 182.152V187.766C310.206 188.93 310.386 189.82 310.729 190.438V190.637H306.78ZM304.307 188.059C304.8 188.059 305.206 187.953 305.526 187.742C305.854 187.531 306.089 187.293 306.229 187.027V185H305.081C303.706 185 303.018 185.617 303.018 186.852C303.018 187.211 303.14 187.504 303.382 187.73C303.624 187.949 303.932 188.059 304.307 188.059ZM324.159 184.402C324.159 186.48 323.729 188.078 322.87 189.195C322.011 190.312 320.8 190.871 319.237 190.871C317.948 190.871 316.909 190.359 316.12 189.336L315.956 190.637H312.417V172.637H316.366V178.977C317.1 178.141 318.05 177.723 319.214 177.723C320.792 177.723 322.011 178.289 322.87 179.422C323.729 180.555 324.159 182.148 324.159 184.203V184.402ZM320.198 184.156C320.198 182.938 320.034 182.07 319.706 181.555C319.386 181.031 318.89 180.77 318.218 180.77C317.327 180.77 316.71 181.109 316.366 181.789V186.828C316.702 187.5 317.327 187.836 318.241 187.836C319.171 187.836 319.761 187.383 320.011 186.477C320.136 186.031 320.198 185.258 320.198 184.156ZM330.077 190.637H326.116V172.637H330.077V190.637ZM338.655 190.871C336.71 190.871 335.136 190.293 333.932 189.137C332.729 187.973 332.128 186.461 332.128 184.602V184.273C332.128 182.977 332.366 181.832 332.843 180.84C333.327 179.848 334.03 179.082 334.952 178.543C335.874 177.996 336.968 177.723 338.233 177.723C340.015 177.723 341.421 178.277 342.452 179.387C343.483 180.488 343.999 182.027 343.999 184.004V185.539H336.147C336.288 186.25 336.597 186.809 337.073 187.215C337.55 187.621 338.167 187.824 338.925 187.824C340.175 187.824 341.151 187.387 341.854 186.512L343.659 188.645C343.167 189.324 342.468 189.867 341.561 190.273C340.663 190.672 339.694 190.871 338.655 190.871ZM338.21 180.77C337.054 180.77 336.366 181.535 336.147 183.066H340.132V182.762C340.147 182.129 339.987 181.641 339.651 181.297C339.315 180.945 338.835 180.77 338.21 180.77Z" fill="white"/>
<path d="M110.724 45.3696H106.634V38.2446H100.575V45.3696H96.462V28.3071H100.575V35.0806H106.634V28.3071H110.724V45.3696ZM120.298 45.3696C120.157 45.1118 120.032 44.7329 119.923 44.2329C119.196 45.147 118.181 45.604 116.876 45.604C115.681 45.604 114.665 45.2446 113.829 44.5259C112.993 43.7993 112.575 42.8892 112.575 41.7954C112.575 40.4204 113.083 39.3813 114.099 38.6782C115.114 37.9751 116.591 37.6235 118.528 37.6235H119.747V36.9556C119.747 35.7915 119.243 35.2095 118.235 35.2095C117.298 35.2095 116.829 35.6704 116.829 36.5923H112.88C112.88 35.3657 113.4 34.3696 114.439 33.604C115.485 32.8384 116.817 32.4556 118.435 32.4556C120.052 32.4556 121.329 32.8501 122.267 33.6392C123.204 34.4282 123.685 35.5103 123.708 36.8853V42.4985C123.724 43.6626 123.903 44.5532 124.247 45.1704V45.3696H120.298ZM117.825 42.7915C118.317 42.7915 118.724 42.686 119.044 42.4751C119.372 42.2642 119.607 42.0259 119.747 41.7603V39.7329H118.599C117.224 39.7329 116.536 40.3501 116.536 41.5845C116.536 41.9438 116.657 42.2368 116.9 42.4634C117.142 42.6821 117.45 42.7915 117.825 42.7915ZM132.544 41.8071C132.544 41.4712 132.368 41.2017 132.017 40.9985C131.665 40.7954 130.997 40.5845 130.013 40.3657C129.028 40.147 128.216 39.8618 127.575 39.5103C126.935 39.1509 126.446 38.7173 126.11 38.2095C125.775 37.7017 125.607 37.1196 125.607 36.4634C125.607 35.2993 126.087 34.3423 127.048 33.5923C128.009 32.8345 129.267 32.4556 130.821 32.4556C132.493 32.4556 133.837 32.8345 134.853 33.5923C135.868 34.3501 136.376 35.3462 136.376 36.5806H132.415C132.415 35.5649 131.88 35.0571 130.81 35.0571C130.396 35.0571 130.048 35.1743 129.767 35.4087C129.485 35.6353 129.345 35.9204 129.345 36.2642C129.345 36.6157 129.517 36.9009 129.86 37.1196C130.204 37.3384 130.751 37.5181 131.501 37.6587C132.259 37.7993 132.923 37.9673 133.493 38.1626C135.4 38.8188 136.353 39.9946 136.353 41.6899C136.353 42.8462 135.837 43.7876 134.806 44.5142C133.782 45.2407 132.454 45.604 130.821 45.604C129.735 45.604 128.767 45.4087 127.915 45.0181C127.064 44.6274 126.4 44.0962 125.923 43.4243C125.446 42.7524 125.208 42.0454 125.208 41.3032H128.9C128.915 41.8892 129.11 42.3188 129.485 42.5923C129.86 42.8579 130.341 42.9907 130.927 42.9907C131.466 42.9907 131.868 42.8813 132.134 42.6626C132.407 42.4438 132.544 42.1587 132.544 41.8071ZM142.071 34.0493C142.915 32.9868 143.993 32.4556 145.306 32.4556C146.704 32.4556 147.759 32.8696 148.47 33.6978C149.181 34.5259 149.544 35.7485 149.56 37.3657V45.3696H145.599V37.4595C145.599 36.7876 145.462 36.2954 145.189 35.9829C144.915 35.6626 144.45 35.5024 143.794 35.5024C142.982 35.5024 142.407 35.7603 142.071 36.2759V45.3696H138.122V27.3696H142.071V34.0493ZM159.474 39.5454H152.431V36.4868H159.474V39.5454ZM176.138 31.4829H171.017V45.3696H166.903V31.4829H161.876V28.3071H176.138V31.4829ZM182.876 45.3696C182.735 45.1118 182.61 44.7329 182.501 44.2329C181.775 45.147 180.759 45.604 179.454 45.604C178.259 45.604 177.243 45.2446 176.407 44.5259C175.571 43.7993 175.153 42.8892 175.153 41.7954C175.153 40.4204 175.661 39.3813 176.677 38.6782C177.692 37.9751 179.169 37.6235 181.107 37.6235H182.325V36.9556C182.325 35.7915 181.821 35.2095 180.814 35.2095C179.876 35.2095 179.407 35.6704 179.407 36.5923H175.458C175.458 35.3657 175.978 34.3696 177.017 33.604C178.064 32.8384 179.396 32.4556 181.013 32.4556C182.63 32.4556 183.907 32.8501 184.845 33.6392C185.782 34.4282 186.263 35.5103 186.286 36.8853V42.4985C186.302 43.6626 186.482 44.5532 186.825 45.1704V45.3696H182.876ZM180.403 42.7915C180.896 42.7915 181.302 42.686 181.622 42.4751C181.95 42.2642 182.185 42.0259 182.325 41.7603V39.7329H181.177C179.802 39.7329 179.114 40.3501 179.114 41.5845C179.114 41.9438 179.235 42.2368 179.478 42.4634C179.72 42.6821 180.028 42.7915 180.403 42.7915ZM200.255 39.1353C200.255 41.2134 199.825 42.811 198.966 43.9282C198.107 45.0454 196.896 45.604 195.333 45.604C194.044 45.604 193.005 45.0923 192.216 44.0688L192.052 45.3696H188.513V27.3696H192.462V33.7095C193.196 32.8735 194.146 32.4556 195.31 32.4556C196.888 32.4556 198.107 33.022 198.966 34.1548C199.825 35.2876 200.255 36.8813 200.255 38.936V39.1353ZM196.294 38.8892C196.294 37.6704 196.13 36.8032 195.802 36.2876C195.482 35.7642 194.985 35.5024 194.314 35.5024C193.423 35.5024 192.806 35.8423 192.462 36.522V41.561C192.798 42.2329 193.423 42.5688 194.337 42.5688C195.267 42.5688 195.857 42.1157 196.107 41.2095C196.232 40.7642 196.294 39.9907 196.294 38.8892ZM206.173 45.3696H202.212V27.3696H206.173V45.3696ZM214.751 45.604C212.806 45.604 211.232 45.0259 210.028 43.8696C208.825 42.7056 208.224 41.1938 208.224 39.3345V39.0063C208.224 37.7095 208.462 36.5649 208.939 35.5728C209.423 34.5806 210.126 33.8149 211.048 33.2759C211.97 32.729 213.064 32.4556 214.329 32.4556C216.11 32.4556 217.517 33.0103 218.548 34.1196C219.579 35.2212 220.095 36.7603 220.095 38.7368V40.272H212.243C212.384 40.9829 212.692 41.5415 213.169 41.9478C213.646 42.354 214.263 42.5571 215.021 42.5571C216.271 42.5571 217.247 42.1196 217.95 41.2446L219.755 43.3774C219.263 44.0571 218.564 44.6001 217.657 45.0063C216.759 45.4048 215.79 45.604 214.751 45.604ZM214.306 35.5024C213.15 35.5024 212.462 36.2681 212.243 37.7993H216.228V37.4946C216.243 36.8618 216.083 36.3735 215.747 36.0298C215.411 35.6782 214.931 35.5024 214.306 35.5024Z" fill="white"/>
<path d="M368.127 45.3696V28.3071H374.256C376.451 28.3071 378.119 28.7095 379.259 29.5142C380.408 30.3188 380.982 31.4868 380.982 33.0181C380.982 33.9009 380.779 34.6548 380.373 35.2798C379.967 35.9048 379.369 36.3657 378.58 36.6626C379.47 36.897 380.154 37.3345 380.631 37.9751C381.107 38.6157 381.345 39.397 381.345 40.3188C381.345 41.9907 380.814 43.2485 379.752 44.0923C378.697 44.9282 377.131 45.354 375.052 45.3696H368.127ZM372.24 38.1157V42.2056H374.935C375.677 42.2056 376.248 42.0376 376.646 41.7017C377.045 41.3579 377.244 40.8774 377.244 40.2603C377.244 38.8384 376.537 38.1235 375.123 38.1157H372.24ZM372.24 35.4204H374.384C375.283 35.4126 375.924 35.2485 376.306 34.9282C376.689 34.6079 376.881 34.1353 376.881 33.5103C376.881 32.7915 376.674 32.2759 376.259 31.9634C375.845 31.6431 375.177 31.4829 374.256 31.4829H372.24V35.4204ZM387.603 45.3696H383.642V32.6899H387.603V45.3696ZM383.408 29.4204C383.408 28.8579 383.611 28.397 384.017 28.0376C384.424 27.6782 384.951 27.4985 385.599 27.4985C386.248 27.4985 386.775 27.6782 387.181 28.0376C387.588 28.397 387.791 28.8579 387.791 29.4204C387.791 29.9829 387.588 30.4438 387.181 30.8032C386.775 31.1626 386.248 31.3423 385.599 31.3423C384.951 31.3423 384.424 31.1626 384.017 30.8032C383.611 30.4438 383.408 29.9829 383.408 29.4204ZM393.674 32.6899L393.802 34.1782C394.677 33.0298 395.884 32.4556 397.424 32.4556C398.744 32.4556 399.728 32.8501 400.377 33.6392C401.033 34.4282 401.373 35.6157 401.396 37.2017V45.3696H397.435V37.3657C397.435 36.7251 397.306 36.2563 397.049 35.9595C396.791 35.6548 396.322 35.5024 395.642 35.5024C394.869 35.5024 394.295 35.8071 393.92 36.4165V45.3696H389.97V32.6899H393.674ZM410.736 45.3696C410.595 45.1118 410.47 44.7329 410.361 44.2329C409.634 45.147 408.619 45.604 407.314 45.604C406.119 45.604 405.103 45.2446 404.267 44.5259C403.431 43.7993 403.013 42.8892 403.013 41.7954C403.013 40.4204 403.521 39.3813 404.537 38.6782C405.552 37.9751 407.029 37.6235 408.967 37.6235H410.185V36.9556C410.185 35.7915 409.681 35.2095 408.674 35.2095C407.736 35.2095 407.267 35.6704 407.267 36.5923H403.318C403.318 35.3657 403.838 34.3696 404.877 33.604C405.924 32.8384 407.256 32.4556 408.873 32.4556C410.49 32.4556 411.767 32.8501 412.705 33.6392C413.642 34.4282 414.123 35.5103 414.146 36.8853V42.4985C414.162 43.6626 414.342 44.5532 414.685 45.1704V45.3696H410.736ZM408.263 42.7915C408.756 42.7915 409.162 42.686 409.482 42.4751C409.81 42.2642 410.045 42.0259 410.185 41.7603V39.7329H409.037C407.662 39.7329 406.974 40.3501 406.974 41.5845C406.974 41.9438 407.095 42.2368 407.338 42.4634C407.58 42.6821 407.888 42.7915 408.263 42.7915ZM424.013 36.2642L422.713 36.1704C421.47 36.1704 420.674 36.561 420.322 37.3423V45.3696H416.373V32.6899H420.076L420.205 34.3188C420.869 33.0767 421.795 32.4556 422.982 32.4556C423.404 32.4556 423.771 32.5024 424.084 32.5962L424.013 36.2642ZM430.717 39.8384L432.826 32.6899H437.056L431.888 47.4907L431.666 48.0298C430.931 49.6704 429.634 50.4907 427.775 50.4907C427.259 50.4907 426.717 50.4126 426.146 50.2563V47.4321H426.662C427.217 47.4321 427.638 47.3501 427.927 47.186C428.224 47.0298 428.443 46.7446 428.584 46.3306L428.9 45.4868L424.494 32.6899H428.713L430.717 39.8384ZM456.943 31.4829H451.822V45.3696H447.709V31.4829H442.681V28.3071H456.943V31.4829ZM465.404 36.2642L464.103 36.1704C462.861 36.1704 462.064 36.561 461.713 37.3423V45.3696H457.763V32.6899H461.467L461.595 34.3188C462.259 33.0767 463.185 32.4556 464.373 32.4556C464.795 32.4556 465.162 32.5024 465.474 32.5962L465.404 36.2642ZM472.728 45.604C470.783 45.604 469.209 45.0259 468.006 43.8696C466.802 42.7056 466.201 41.1938 466.201 39.3345V39.0063C466.201 37.7095 466.439 36.5649 466.916 35.5728C467.4 34.5806 468.103 33.8149 469.025 33.2759C469.947 32.729 471.041 32.4556 472.306 32.4556C474.088 32.4556 475.494 33.0103 476.525 34.1196C477.556 35.2212 478.072 36.7603 478.072 38.7368V40.272H470.22C470.361 40.9829 470.67 41.5415 471.146 41.9478C471.623 42.354 472.24 42.5571 472.998 42.5571C474.248 42.5571 475.224 42.1196 475.927 41.2446L477.732 43.3774C477.24 44.0571 476.541 44.6001 475.634 45.0063C474.736 45.4048 473.767 45.604 472.728 45.604ZM472.283 35.5024C471.127 35.5024 470.439 36.2681 470.22 37.7993H474.205V37.4946C474.22 36.8618 474.06 36.3735 473.724 36.0298C473.388 35.6782 472.908 35.5024 472.283 35.5024ZM485.806 45.604C483.861 45.604 482.287 45.0259 481.084 43.8696C479.881 42.7056 479.279 41.1938 479.279 39.3345V39.0063C479.279 37.7095 479.517 36.5649 479.994 35.5728C480.478 34.5806 481.181 33.8149 482.103 33.2759C483.025 32.729 484.119 32.4556 485.384 32.4556C487.166 32.4556 488.572 33.0103 489.603 34.1196C490.634 35.2212 491.15 36.7603 491.15 38.7368V40.272H483.299C483.439 40.9829 483.748 41.5415 484.224 41.9478C484.701 42.354 485.318 42.5571 486.076 42.5571C487.326 42.5571 488.302 42.1196 489.006 41.2446L490.81 43.3774C490.318 44.0571 489.619 44.6001 488.713 45.0063C487.814 45.4048 486.845 45.604 485.806 45.604ZM485.361 35.5024C484.205 35.5024 483.517 36.2681 483.299 37.7993H487.283V37.4946C487.299 36.8618 487.138 36.3735 486.802 36.0298C486.467 35.6782 485.986 35.5024 485.361 35.5024Z" fill="white"/>
<path d="M472.372 80.7705C472.317 81.958 471.997 83.0088 471.411 83.9229C470.825 84.8291 470.001 85.5322 468.938 86.0322C467.884 86.5322 466.677 86.7822 465.317 86.7822C463.075 86.7822 461.31 86.0518 460.02 84.5908C458.731 83.1299 458.087 81.0674 458.087 78.4033V77.5596C458.087 75.8877 458.376 74.4268 458.954 73.1768C459.54 71.9189 460.38 70.9502 461.474 70.2705C462.567 69.583 463.833 69.2393 465.27 69.2393C467.341 69.2393 469.005 69.7861 470.263 70.8799C471.52 71.9658 472.235 73.4658 472.407 75.3799H468.306C468.274 74.3408 468.013 73.5947 467.52 73.1416C467.028 72.6885 466.278 72.4619 465.27 72.4619C464.247 72.4619 463.497 72.8447 463.02 73.6104C462.544 74.376 462.294 75.5986 462.27 77.2783V78.4854C462.27 80.3057 462.497 81.6064 462.95 82.3877C463.411 83.1689 464.2 83.5596 465.317 83.5596C466.263 83.5596 466.985 83.3369 467.485 82.8916C467.985 82.4463 468.251 81.7393 468.282 80.7705H472.372ZM473.638 80.0908C473.638 78.8252 473.884 77.7002 474.376 76.7158C474.868 75.7236 475.575 74.9619 476.497 74.4307C477.419 73.8994 478.501 73.6338 479.743 73.6338C481.642 73.6338 483.138 74.2236 484.231 75.4033C485.325 76.5752 485.872 78.1729 485.872 80.1963V80.3369C485.872 82.3135 485.321 83.8838 484.22 85.0479C483.126 86.2041 481.642 86.7822 479.767 86.7822C477.962 86.7822 476.513 86.2432 475.419 85.165C474.325 84.0791 473.735 82.6104 473.649 80.7588L473.638 80.0908ZM477.587 80.3369C477.587 81.5088 477.77 82.3682 478.138 82.915C478.505 83.4619 479.048 83.7354 479.767 83.7354C481.173 83.7354 481.892 82.6533 481.923 80.4893V80.0908C481.923 77.8174 481.196 76.6807 479.743 76.6807C478.423 76.6807 477.708 77.6611 477.599 79.6221L477.587 80.3369ZM491.239 73.8682L491.368 75.3564C492.243 74.208 493.45 73.6338 494.989 73.6338C496.31 73.6338 497.294 74.0283 497.942 74.8174C498.599 75.6064 498.938 76.7939 498.962 78.3799V86.5479H495.001V78.5439C495.001 77.9033 494.872 77.4346 494.614 77.1377C494.356 76.833 493.888 76.6807 493.208 76.6807C492.435 76.6807 491.86 76.9854 491.485 77.5947V86.5479H487.536V73.8682H491.239ZM512.11 81.3447L513.388 73.8682H517.173L514.185 86.5479H510.845L508.747 79.0244L506.638 86.5479H503.298L500.31 73.8682H504.095L505.349 81.5205L507.364 73.8682H510.118L512.11 81.3447ZM525.739 86.5479C525.599 86.29 525.474 85.9111 525.364 85.4111C524.638 86.3252 523.622 86.7822 522.317 86.7822C521.122 86.7822 520.106 86.4229 519.27 85.7041C518.435 84.9775 518.017 84.0674 518.017 82.9736C518.017 81.5986 518.524 80.5596 519.54 79.8564C520.556 79.1533 522.032 78.8018 523.97 78.8018H525.188V78.1338C525.188 76.9697 524.685 76.3877 523.677 76.3877C522.739 76.3877 522.27 76.8486 522.27 77.7705H518.321C518.321 76.5439 518.841 75.5479 519.88 74.7822C520.927 74.0166 522.259 73.6338 523.876 73.6338C525.493 73.6338 526.77 74.0283 527.708 74.8174C528.645 75.6064 529.126 76.6885 529.149 78.0635V83.6768C529.165 84.8408 529.345 85.7314 529.688 86.3486V86.5479H525.739ZM523.267 83.9697C523.759 83.9697 524.165 83.8643 524.485 83.6533C524.813 83.4424 525.048 83.2041 525.188 82.9385V80.9111H524.04C522.665 80.9111 521.978 81.5283 521.978 82.7627C521.978 83.1221 522.099 83.415 522.341 83.6416C522.583 83.8604 522.892 83.9697 523.267 83.9697ZM536.228 81.0166L538.337 73.8682H542.567L537.399 88.6689L537.177 89.208C536.442 90.8486 535.145 91.6689 533.286 91.6689C532.77 91.6689 532.228 91.5908 531.657 91.4346V88.6104H532.173C532.728 88.6104 533.149 88.5283 533.438 88.3643C533.735 88.208 533.954 87.9229 534.095 87.5088L534.411 86.665L530.005 73.8682H534.224L536.228 81.0166ZM550.243 82.9854C550.243 82.6494 550.067 82.3799 549.716 82.1768C549.364 81.9736 548.696 81.7627 547.712 81.5439C546.728 81.3252 545.915 81.04 545.274 80.6885C544.634 80.3291 544.145 79.8955 543.81 79.3877C543.474 78.8799 543.306 78.2979 543.306 77.6416C543.306 76.4775 543.786 75.5205 544.747 74.7705C545.708 74.0127 546.966 73.6338 548.52 73.6338C550.192 73.6338 551.536 74.0127 552.552 74.7705C553.567 75.5283 554.075 76.5244 554.075 77.7588H550.114C550.114 76.7432 549.579 76.2354 548.509 76.2354C548.095 76.2354 547.747 76.3525 547.466 76.5869C547.185 76.8135 547.044 77.0986 547.044 77.4424C547.044 77.7939 547.216 78.0791 547.56 78.2979C547.903 78.5166 548.45 78.6963 549.2 78.8369C549.958 78.9775 550.622 79.1455 551.192 79.3408C553.099 79.9971 554.052 81.1729 554.052 82.8682C554.052 84.0244 553.536 84.9658 552.505 85.6924C551.481 86.4189 550.153 86.7822 548.52 86.7822C547.435 86.7822 546.466 86.5869 545.614 86.1963C544.763 85.8057 544.099 85.2744 543.622 84.6025C543.145 83.9307 542.907 83.2236 542.907 82.4814H546.599C546.614 83.0674 546.81 83.4971 547.185 83.7705C547.56 84.0361 548.04 84.1689 548.626 84.1689C549.165 84.1689 549.567 84.0596 549.833 83.8408C550.106 83.6221 550.243 83.3369 550.243 82.9854Z" fill="white"/>
<path d="M377.362 150.603V133.54H382.858C384.366 133.54 385.722 133.884 386.925 134.571C388.128 135.251 389.065 136.216 389.737 137.466C390.417 138.708 390.761 140.103 390.768 141.649V142.435C390.768 143.997 390.436 145.399 389.772 146.642C389.116 147.876 388.186 148.845 386.983 149.548C385.788 150.243 384.452 150.595 382.975 150.603H377.362ZM381.475 136.716V147.438H382.905C384.085 147.438 384.991 147.021 385.624 146.185C386.257 145.341 386.573 144.091 386.573 142.435V141.696C386.573 140.048 386.257 138.806 385.624 137.97C384.991 137.134 384.069 136.716 382.858 136.716H381.475ZM396.862 150.603H392.901V137.923H396.862V150.603ZM392.667 134.653C392.667 134.091 392.87 133.63 393.276 133.271C393.682 132.911 394.21 132.731 394.858 132.731C395.507 132.731 396.034 132.911 396.44 133.271C396.847 133.63 397.05 134.091 397.05 134.653C397.05 135.216 396.847 135.677 396.44 136.036C396.034 136.396 395.507 136.575 394.858 136.575C394.21 136.575 393.682 136.396 393.276 136.036C392.87 135.677 392.667 135.216 392.667 134.653ZM403.554 137.923V151.036C403.546 152.536 403.116 153.692 402.264 154.505C401.413 155.317 400.225 155.724 398.702 155.724C398.046 155.724 397.425 155.657 396.839 155.524V152.536C397.292 152.606 397.663 152.642 397.952 152.642C399.046 152.642 399.593 152.099 399.593 151.013V137.923H403.554ZM399.3 134.653C399.3 134.091 399.503 133.63 399.909 133.271C400.315 132.911 400.843 132.731 401.491 132.731C402.139 132.731 402.667 132.911 403.073 133.271C403.479 133.63 403.682 134.091 403.682 134.653C403.682 135.216 403.479 135.677 403.073 136.036C402.667 136.396 402.139 136.575 401.491 136.575C400.843 136.575 400.315 136.396 399.909 136.036C399.503 135.677 399.3 135.216 399.3 134.653ZM410.889 145.88L409.776 146.993V150.603H405.827V132.591H409.776V142.153L410.175 141.626L413.151 137.923H417.886L413.444 143.138L418.179 150.603H413.655L410.889 145.88ZM425.561 147.04C425.561 146.704 425.386 146.435 425.034 146.231C424.682 146.028 424.014 145.817 423.03 145.599C422.046 145.38 421.233 145.095 420.593 144.743C419.952 144.384 419.464 143.95 419.128 143.442C418.792 142.935 418.624 142.353 418.624 141.696C418.624 140.532 419.104 139.575 420.065 138.825C421.026 138.067 422.284 137.688 423.839 137.688C425.511 137.688 426.854 138.067 427.87 138.825C428.886 139.583 429.393 140.579 429.393 141.813H425.432C425.432 140.798 424.897 140.29 423.827 140.29C423.413 140.29 423.065 140.407 422.784 140.642C422.503 140.868 422.362 141.153 422.362 141.497C422.362 141.849 422.534 142.134 422.878 142.353C423.222 142.571 423.768 142.751 424.518 142.892C425.276 143.032 425.94 143.2 426.511 143.396C428.417 144.052 429.37 145.228 429.37 146.923C429.37 148.079 428.854 149.021 427.823 149.747C426.8 150.474 425.472 150.837 423.839 150.837C422.753 150.837 421.784 150.642 420.932 150.251C420.081 149.86 419.417 149.329 418.94 148.657C418.464 147.985 418.225 147.278 418.225 146.536H421.917C421.932 147.122 422.128 147.552 422.503 147.825C422.878 148.091 423.358 148.224 423.944 148.224C424.483 148.224 424.886 148.114 425.151 147.896C425.425 147.677 425.561 147.392 425.561 147.04ZM435.827 134.771V137.923H437.913V140.665H435.827V146.466C435.827 146.942 435.913 147.274 436.085 147.462C436.257 147.649 436.597 147.743 437.104 147.743C437.495 147.743 437.823 147.72 438.089 147.673V150.497C437.378 150.724 436.636 150.837 435.862 150.837C434.503 150.837 433.499 150.517 432.85 149.876C432.202 149.235 431.878 148.263 431.878 146.958V140.665H430.261V137.923H431.878V134.771H435.827ZM447.147 141.497L445.847 141.403C444.604 141.403 443.807 141.794 443.456 142.575V150.603H439.507V137.923H443.21L443.339 139.552C444.003 138.31 444.929 137.688 446.116 137.688C446.538 137.688 446.905 137.735 447.218 137.829L447.147 141.497ZM455.362 150.603C455.222 150.345 455.097 149.966 454.987 149.466C454.261 150.38 453.245 150.837 451.94 150.837C450.745 150.837 449.729 150.478 448.893 149.759C448.057 149.032 447.639 148.122 447.639 147.028C447.639 145.653 448.147 144.614 449.163 143.911C450.179 143.208 451.655 142.856 453.593 142.856H454.811V142.188C454.811 141.024 454.307 140.442 453.3 140.442C452.362 140.442 451.893 140.903 451.893 141.825H447.944C447.944 140.599 448.464 139.603 449.503 138.837C450.55 138.071 451.882 137.688 453.499 137.688C455.116 137.688 456.393 138.083 457.331 138.872C458.268 139.661 458.749 140.743 458.772 142.118V147.731C458.788 148.896 458.968 149.786 459.311 150.403V150.603H455.362ZM452.889 148.024C453.382 148.024 453.788 147.919 454.108 147.708C454.436 147.497 454.671 147.259 454.811 146.993V144.966H453.663C452.288 144.966 451.6 145.583 451.6 146.817C451.6 147.177 451.722 147.47 451.964 147.696C452.206 147.915 452.514 148.024 452.889 148.024ZM467.608 147.04C467.608 146.704 467.432 146.435 467.081 146.231C466.729 146.028 466.061 145.817 465.077 145.599C464.093 145.38 463.28 145.095 462.639 144.743C461.999 144.384 461.511 143.95 461.175 143.442C460.839 142.935 460.671 142.353 460.671 141.696C460.671 140.532 461.151 139.575 462.112 138.825C463.073 138.067 464.331 137.688 465.886 137.688C467.557 137.688 468.901 138.067 469.917 138.825C470.932 139.583 471.44 140.579 471.44 141.813H467.479C467.479 140.798 466.944 140.29 465.874 140.29C465.46 140.29 465.112 140.407 464.831 140.642C464.55 140.868 464.409 141.153 464.409 141.497C464.409 141.849 464.581 142.134 464.925 142.353C465.268 142.571 465.815 142.751 466.565 142.892C467.323 143.032 467.987 143.2 468.557 143.396C470.464 144.052 471.417 145.228 471.417 146.923C471.417 148.079 470.901 149.021 469.87 149.747C468.847 150.474 467.518 150.837 465.886 150.837C464.8 150.837 463.831 150.642 462.979 150.251C462.128 149.86 461.464 149.329 460.987 148.657C460.511 147.985 460.272 147.278 460.272 146.536H463.964C463.979 147.122 464.175 147.552 464.55 147.825C464.925 148.091 465.405 148.224 465.991 148.224C466.53 148.224 466.932 148.114 467.198 147.896C467.472 147.677 467.608 147.392 467.608 147.04Z" fill="white"/>
<path d="M98.073 147.958V153.747H93.9598V136.684H100.768C102.073 136.684 103.225 136.926 104.225 137.411C105.233 137.887 106.011 138.571 106.557 139.461C107.112 140.344 107.389 141.348 107.389 142.473C107.389 144.137 106.792 145.469 105.596 146.469C104.409 147.461 102.776 147.958 100.698 147.958H98.073ZM98.073 144.782H100.768C101.565 144.782 102.171 144.583 102.585 144.184C103.007 143.786 103.218 143.223 103.218 142.497C103.218 141.7 103.003 141.063 102.573 140.586C102.143 140.11 101.557 139.868 100.815 139.86H98.073V144.782ZM116.413 153.747C116.272 153.489 116.147 153.11 116.038 152.61C115.311 153.524 114.296 153.981 112.991 153.981C111.796 153.981 110.78 153.622 109.944 152.903C109.108 152.176 108.69 151.266 108.69 150.172C108.69 148.797 109.198 147.758 110.214 147.055C111.229 146.352 112.706 146 114.643 146H115.862V145.333C115.862 144.168 115.358 143.586 114.35 143.586C113.413 143.586 112.944 144.047 112.944 144.969H108.995C108.995 143.743 109.514 142.747 110.554 141.981C111.6 141.215 112.932 140.833 114.55 140.833C116.167 140.833 117.444 141.227 118.382 142.016C119.319 142.805 119.8 143.887 119.823 145.262V150.875C119.839 152.04 120.018 152.93 120.362 153.547V153.747H116.413ZM113.94 151.168C114.432 151.168 114.839 151.063 115.159 150.852C115.487 150.641 115.721 150.403 115.862 150.137V148.11H114.714C113.339 148.11 112.651 148.727 112.651 149.961C112.651 150.321 112.772 150.614 113.014 150.84C113.257 151.059 113.565 151.168 113.94 151.168ZM129.69 144.641L128.389 144.547C127.147 144.547 126.35 144.938 125.999 145.719V153.747H122.05V141.067H125.753L125.882 142.696C126.546 141.454 127.471 140.833 128.659 140.833C129.081 140.833 129.448 140.879 129.761 140.973L129.69 144.641ZM137.905 153.747C137.764 153.489 137.639 153.11 137.53 152.61C136.804 153.524 135.788 153.981 134.483 153.981C133.288 153.981 132.272 153.622 131.436 152.903C130.6 152.176 130.182 151.266 130.182 150.172C130.182 148.797 130.69 147.758 131.706 147.055C132.721 146.352 134.198 146 136.136 146H137.354V145.333C137.354 144.168 136.85 143.586 135.843 143.586C134.905 143.586 134.436 144.047 134.436 144.969H130.487C130.487 143.743 131.007 142.747 132.046 141.981C133.093 141.215 134.425 140.833 136.042 140.833C137.659 140.833 138.936 141.227 139.874 142.016C140.811 142.805 141.292 143.887 141.315 145.262V150.875C141.331 152.04 141.511 152.93 141.854 153.547V153.747H137.905ZM135.432 151.168C135.925 151.168 136.331 151.063 136.651 150.852C136.979 150.641 137.214 150.403 137.354 150.137V148.11H136.206C134.831 148.11 134.143 148.727 134.143 149.961C134.143 150.321 134.264 150.614 134.507 150.84C134.749 151.059 135.057 151.168 135.432 151.168ZM147.679 153.747H143.718V135.747H147.679V153.747ZM154.288 153.747H150.327V135.747H154.288V153.747ZM162.866 153.981C160.921 153.981 159.346 153.403 158.143 152.247C156.94 151.083 156.339 149.571 156.339 147.711V147.383C156.339 146.086 156.577 144.942 157.054 143.95C157.538 142.958 158.241 142.192 159.163 141.653C160.085 141.106 161.179 140.833 162.444 140.833C164.225 140.833 165.632 141.387 166.663 142.497C167.694 143.598 168.21 145.137 168.21 147.114V148.649H160.358C160.499 149.36 160.807 149.918 161.284 150.325C161.761 150.731 162.378 150.934 163.136 150.934C164.386 150.934 165.362 150.497 166.065 149.622L167.87 151.754C167.378 152.434 166.679 152.977 165.772 153.383C164.874 153.782 163.905 153.981 162.866 153.981ZM162.421 143.879C161.264 143.879 160.577 144.645 160.358 146.176H164.343V145.872C164.358 145.239 164.198 144.75 163.862 144.407C163.526 144.055 163.046 143.879 162.421 143.879ZM173.975 153.747H170.014V135.747H173.975V153.747ZM180.585 153.747H176.624V141.067H180.585V153.747ZM176.389 137.797C176.389 137.235 176.593 136.774 176.999 136.415C177.405 136.055 177.932 135.875 178.581 135.875C179.229 135.875 179.757 136.055 180.163 136.415C180.569 136.774 180.772 137.235 180.772 137.797C180.772 138.36 180.569 138.821 180.163 139.18C179.757 139.54 179.229 139.719 178.581 139.719C177.932 139.719 177.405 139.54 176.999 139.18C176.593 138.821 176.389 138.36 176.389 137.797ZM189.667 150.184C189.667 149.848 189.491 149.579 189.139 149.375C188.788 149.172 188.12 148.961 187.136 148.743C186.151 148.524 185.339 148.239 184.698 147.887C184.057 147.528 183.569 147.094 183.233 146.586C182.897 146.079 182.729 145.497 182.729 144.84C182.729 143.676 183.21 142.719 184.171 141.969C185.132 141.211 186.389 140.833 187.944 140.833C189.616 140.833 190.96 141.211 191.975 141.969C192.991 142.727 193.499 143.723 193.499 144.958H189.538C189.538 143.942 189.003 143.434 187.932 143.434C187.518 143.434 187.171 143.551 186.889 143.786C186.608 144.012 186.468 144.297 186.468 144.641C186.468 144.993 186.639 145.278 186.983 145.497C187.327 145.715 187.874 145.895 188.624 146.036C189.382 146.176 190.046 146.344 190.616 146.54C192.522 147.196 193.475 148.372 193.475 150.067C193.475 151.223 192.96 152.165 191.929 152.891C190.905 153.618 189.577 153.981 187.944 153.981C186.858 153.981 185.889 153.786 185.038 153.395C184.186 153.004 183.522 152.473 183.046 151.801C182.569 151.129 182.331 150.422 182.331 149.68H186.022C186.038 150.266 186.233 150.696 186.608 150.969C186.983 151.235 187.464 151.368 188.05 151.368C188.589 151.368 188.991 151.258 189.257 151.04C189.53 150.821 189.667 150.536 189.667 150.184ZM199.065 141.067L199.194 142.555C200.093 141.407 201.3 140.833 202.815 140.833C204.417 140.833 205.499 141.469 206.061 142.743C206.921 141.469 208.163 140.833 209.788 140.833C212.358 140.833 213.679 142.387 213.749 145.497V153.747H209.788V145.743C209.788 145.094 209.679 144.622 209.46 144.325C209.241 144.028 208.843 143.879 208.264 143.879C207.483 143.879 206.901 144.227 206.518 144.922L206.53 145.086V153.747H202.569V145.766C202.569 145.102 202.464 144.622 202.253 144.325C202.042 144.028 201.639 143.879 201.046 143.879C200.288 143.879 199.71 144.227 199.311 144.922V153.747H195.362V141.067H199.065Z" fill="white"/>
</svg>
